<svg width="58" height="43" viewBox="0 0 58 43" fill="none" xmlns="http://www.w3.org/2000/svg">
<rect width="58" height="43" rx="7" fill="#605DFF"/>
<path d="M12.6 30.1429L19.104 13.3429H21.744L28.2 30.1429H25.44L21.6 20.0149C21.552 19.9029 21.456 19.6309 21.312 19.1989C21.184 18.7669 21.032 18.2869 20.856 17.7589C20.68 17.2309 20.52 16.7509 20.376 16.3189C20.232 15.8709 20.136 15.5829 20.088 15.4549L20.64 15.4309C20.544 15.7029 20.424 16.0469 20.28 16.4629C20.152 16.8789 20.008 17.3189 19.848 17.7829C19.704 18.2469 19.56 18.6869 19.416 19.1029C19.272 19.5029 19.152 19.8389 19.056 20.1109L15.24 30.1429H12.6ZM15.48 25.9669L16.44 23.4709H24.072L25.176 25.9669H15.48ZM31.5407 30.4069C31.0127 30.4069 30.6047 30.2549 30.3167 29.9509C30.0287 29.6309 29.8847 29.1829 29.8847 28.6069C29.8847 28.0789 30.0367 27.6469 30.3407 27.3109C30.6447 26.9749 31.0447 26.8069 31.5407 26.8069C32.0687 26.8069 32.4767 26.9669 32.7647 27.2869C33.0527 27.5909 33.1967 28.0309 33.1967 28.6069C33.1967 29.1349 33.0447 29.5669 32.7407 29.9029C32.4367 30.2389 32.0367 30.4069 31.5407 30.4069ZM37.419 30.1429V15.8389H32.715V13.3429H44.859V15.8389H40.011V30.1429H37.419Z" fill="white"/>
</svg>
